{
    "asset" : {
        "generator" : "Khronos glTF Blender I/O v1.4.40",
        "version" : "2.0"
    },
    "scene" : 0,
    "scenes" : [
        {
            "name" : "Scene",
            "nodes" : [
                0,
                1,
                2
            ]
        }
    ],
    "nodes" : [
        {
            "mesh" : 0,
            "name" : "\u5e73\u9762",
            "scale" : [
                3.7243237495422363,
                5.878615379333496,
                5.878615379333496
            ]
        },
        {
            "mesh" : 1,
            "name" : "\u5b66\u96621",
            "scale" : [
                0.5021856427192688,
                1.0755058526992798,
                1.0792299509048462
            ],
            "translation" : [
                2.4211511611938477,
                2.7879655361175537,
                3.5290441513061523
            ]
        },
        {
            "mesh" : 2,
            "name" : "\u5b66\u96623",
            "scale" : [
                0.5021856427192688,
                1.0792299509048462,
                1.0792299509048462
            ],
            "translation" : [
                0.3719125986099243,
                1.3567615747451782,
                -3.0181050300598145
            ]
        }
    ],
    "meshes" : [
        {
            "name" : "\u5e73\u9762",
            "primitives" : [
                {
                    "attributes" : {
                        "POSITION" : 0,
                        "NORMAL" : 1,
                        "TEXCOORD_0" : 2
                    },
                    "indices" : 3
                }
            ]
        },
        {
            "name" : "\u7acb\u65b9\u4f53",
            "primitives" : [
                {
                    "attributes" : {
                        "POSITION" : 4,
                        "NORMAL" : 5,
                        "TEXCOORD_0" : 6
                    },
                    "indices" : 7
                }
            ]
        },
        {
            "name" : "\u7acb\u65b9\u4f53.003",
            "primitives" : [
                {
                    "attributes" : {
                        "POSITION" : 8,
                        "NORMAL" : 9,
                        "TEXCOORD_0" : 10
                    },
                    "indices" : 11
                }
            ]
        }
    ],
    "accessors" : [
        {
            "bufferView" : 0,
            "componentType" : 5126,
            "count" : 4,
            "max" : [
                0.9999997019767761,
                0,
                1
            ],
            "min" : [
                -1,
                0,
                -1
            ],
            "type" : "VEC3"
        },
        {
            "bufferView" : 1,
            "componentType" : 5126,
            "count" : 4,
            "type" : "VEC3"
        },
        {
            "bufferView" : 2,
            "componentType" : 5126,
            "count" : 4,
            "type" : "VEC2"
        },
        {
            "bufferView" : 3,
            "componentType" : 5123,
            "count" : 6,
            "type" : "SCALAR"
        },
        {
            "bufferView" : 4,
            "componentType" : 5126,
            "count" : 216,
            "max" : [
                0.6150000095367432,
                0.6150000095367432,
                0.6150000095367432
            ],
            "min" : [
                -0.6150000095367432,
                -2.3164663314819336,
                -0.6150000095367432
            ],
            "type" : "VEC3"
        },
        {
            "bufferView" : 5,
            "componentType" : 5126,
            "count" : 216,
            "type" : "VEC3"
        },
        {
            "bufferView" : 6,
            "componentType" : 5126,
            "count" : 216,
            "type" : "VEC2"
        },
        {
            "bufferView" : 7,
            "componentType" : 5123,
            "count" : 408,
            "type" : "SCALAR"
        },
        {
            "bufferView" : 8,
            "componentType" : 5126,
            "count" : 432,
            "max" : [
                3.469528913497925,
                2.042631149291992,
                1.6542550325393677
            ],
            "min" : [
                -3.4695277214050293,
                -1.273199200630188,
                -1.6542567014694214
            ],
            "type" : "VEC3"
        },
        {
            "bufferView" : 9,
            "componentType" : 5126,
            "count" : 432,
            "type" : "VEC3"
        },
        {
            "bufferView" : 10,
            "componentType" : 5126,
            "count" : 432,
            "type" : "VEC2"
        },
        {
            "bufferView" : 11,
            "componentType" : 5123,
            "count" : 816,
            "type" : "SCALAR"
        }
    ],
    "bufferViews" : [
        {
            "buffer" : 0,
            "byteLength" : 48,
            "byteOffset" : 0
        },
        {
            "buffer" : 0,
            "byteLength" : 48,
            "byteOffset" : 48
        },
        {
            "buffer" : 0,
            "byteLength" : 32,
            "byteOffset" : 96
        },
        {
            "buffer" : 0,
            "byteLength" : 12,
            "byteOffset" : 128
        },
        {
            "buffer" : 0,
            "byteLength" : 2592,
            "byteOffset" : 140
        },
        {
            "buffer" : 0,
            "byteLength" : 2592,
            "byteOffset" : 2732
        },
        {
            "buffer" : 0,
            "byteLength" : 1728,
            "byteOffset" : 5324
        },
        {
            "buffer" : 0,
            "byteLength" : 816,
            "byteOffset" : 7052
        },
        {
            "buffer" : 0,
            "byteLength" : 5184,
            "byteOffset" : 7868
        },
        {
            "buffer" : 0,
            "byteLength" : 5184,
            "byteOffset" : 13052
        },
        {
            "buffer" : 0,
            "byteLength" : 3456,
            "byteOffset" : 18236
        },
        {
            "buffer" : 0,
            "byteLength" : 1632,
            "byteOffset" : 21692
        }
    ],
    "buffers" : [
        {
            "byteLength" : 23324,
            "uri" : "data:application/octet-stream;base64,"
        }
    ]
}
